<mxfile host="app.diagrams.net" modified="2021-12-22T12:35:54.045Z" agent="5.0 (Windows NT 10.0; Win64; x64) AppleWebKit/537.36 (KHTML, like Gecko) Chrome/96.0.4664.110 Safari/537.36" etag="1TJbA_6xFlGC6KqOGlIn" version="16.0.3" type="github">
  <diagram id="kgpKYQtTHZ0yAKxKKP6v" name="Page-1">
    <mxGraphModel dx="948" dy="508" grid="1" gridSize="10" guides="1" tooltips="1" connect="1" arrows="1" fold="1" page="1" pageScale="1" pageWidth="850" pageHeight="1100" math="0" shadow="0">
      <root>
        <mxCell id="0" />
        <mxCell id="1" parent="0" />
        <mxCell id="3nuBFxr9cyL0pnOWT2aG-1" value="浏览器" style="shape=umlLifeline;perimeter=lifelinePerimeter;container=1;collapsible=0;recursiveResize=0;rounded=0;shadow=0;strokeWidth=1;" parent="1" vertex="1">
          <mxGeometry x="208" y="80" width="100" height="450" as="geometry" />
        </mxCell>
        <mxCell id="3nuBFxr9cyL0pnOWT2aG-2" value="" style="points=[];perimeter=orthogonalPerimeter;rounded=0;shadow=0;strokeWidth=1;" parent="3nuBFxr9cyL0pnOWT2aG-1" vertex="1">
          <mxGeometry x="45" y="70" width="10" height="150" as="geometry" />
        </mxCell>
        <mxCell id="eZNQvngmzv5qfDeCci1Q-24" value="" style="edgeStyle=elbowEdgeStyle;elbow=horizontal;endArrow=classic;html=1;rounded=0;exitX=1.05;exitY=0.283;exitDx=0;exitDy=0;exitPerimeter=0;entryX=0.967;entryY=0.969;entryDx=0;entryDy=0;entryPerimeter=0;" edge="1" parent="3nuBFxr9cyL0pnOWT2aG-1" target="3nuBFxr9cyL0pnOWT2aG-2">
          <mxGeometry width="50" height="50" relative="1" as="geometry">
            <mxPoint x="55" y="180.00000000000003" as="sourcePoint" />
            <mxPoint x="50" y="220" as="targetPoint" />
            <Array as="points">
              <mxPoint x="79.5" y="213.3" />
              <mxPoint x="79.5" y="263.3" />
              <mxPoint x="109.5" y="200.36" />
              <mxPoint x="93.25" y="236.35999999999996" />
            </Array>
          </mxGeometry>
        </mxCell>
        <mxCell id="eZNQvngmzv5qfDeCci1Q-25" value="如果模板正确&lt;br&gt;刷新列表" style="edgeLabel;html=1;align=center;verticalAlign=middle;resizable=0;points=[];" vertex="1" connectable="0" parent="eZNQvngmzv5qfDeCci1Q-24">
          <mxGeometry x="-0.2381" relative="1" as="geometry">
            <mxPoint x="20" y="14" as="offset" />
          </mxGeometry>
        </mxCell>
        <mxCell id="eZNQvngmzv5qfDeCci1Q-13" value="" style="edgeStyle=elbowEdgeStyle;elbow=horizontal;endArrow=open;html=1;rounded=0;endFill=0;dashed=1;" edge="1" parent="3nuBFxr9cyL0pnOWT2aG-1">
          <mxGeometry width="50" height="50" relative="1" as="geometry">
            <mxPoint x="251.5" y="154" as="sourcePoint" />
            <mxPoint x="55" y="154.00000000000003" as="targetPoint" />
            <Array as="points">
              <mxPoint x="105" y="154.00000000000003" />
              <mxPoint x="115" y="164.00000000000003" />
              <mxPoint x="95" y="154.00000000000003" />
              <mxPoint x="135" y="174.00000000000003" />
              <mxPoint x="125" y="166.75000000000003" />
              <mxPoint x="155" y="190.75000000000003" />
              <mxPoint x="138.75" y="226.75000000000003" />
            </Array>
          </mxGeometry>
        </mxCell>
        <mxCell id="eZNQvngmzv5qfDeCci1Q-18" value="返回模板正确/错误" style="edgeLabel;html=1;align=center;verticalAlign=middle;resizable=0;points=[];" vertex="1" connectable="0" parent="eZNQvngmzv5qfDeCci1Q-13">
          <mxGeometry relative="1" as="geometry">
            <mxPoint y="-10" as="offset" />
          </mxGeometry>
        </mxCell>
        <mxCell id="eZNQvngmzv5qfDeCci1Q-42" value="" style="edgeStyle=elbowEdgeStyle;elbow=horizontal;endArrow=classic;html=1;rounded=0;entryX=0.967;entryY=0.994;entryDx=0;entryDy=0;entryPerimeter=0;exitX=0.967;exitY=0.644;exitDx=0;exitDy=0;exitPerimeter=0;" edge="1" parent="3nuBFxr9cyL0pnOWT2aG-1" source="eZNQvngmzv5qfDeCci1Q-44" target="eZNQvngmzv5qfDeCci1Q-44">
          <mxGeometry width="50" height="50" relative="1" as="geometry">
            <mxPoint x="55" y="300" as="sourcePoint" />
            <mxPoint x="55" y="343.46000000000004" as="targetPoint" />
            <Array as="points">
              <mxPoint x="82" y="320" />
              <mxPoint x="79.5" y="383.3" />
              <mxPoint x="109.5" y="320.36" />
              <mxPoint x="93.25" y="356.35999999999996" />
            </Array>
          </mxGeometry>
        </mxCell>
        <mxCell id="eZNQvngmzv5qfDeCci1Q-43" value="刷新列表" style="edgeLabel;html=1;align=center;verticalAlign=middle;resizable=0;points=[];" vertex="1" connectable="0" parent="eZNQvngmzv5qfDeCci1Q-42">
          <mxGeometry x="-0.2381" relative="1" as="geometry">
            <mxPoint x="20" y="14" as="offset" />
          </mxGeometry>
        </mxCell>
        <mxCell id="eZNQvngmzv5qfDeCci1Q-44" value="" style="points=[];perimeter=orthogonalPerimeter;rounded=0;shadow=0;strokeWidth=1;" vertex="1" parent="3nuBFxr9cyL0pnOWT2aG-1">
          <mxGeometry x="45" y="230" width="10" height="120" as="geometry" />
        </mxCell>
        <mxCell id="eZNQvngmzv5qfDeCci1Q-38" value="请求导入结果" style="verticalAlign=bottom;endArrow=block;entryX=-0.367;entryY=0.093;shadow=0;strokeWidth=1;entryDx=0;entryDy=0;entryPerimeter=0;" edge="1" parent="3nuBFxr9cyL0pnOWT2aG-1">
          <mxGeometry relative="1" as="geometry">
            <mxPoint x="55" y="229.9989999999999" as="sourcePoint" />
            <mxPoint x="243.32999999999993" y="229.9989999999999" as="targetPoint" />
          </mxGeometry>
        </mxCell>
        <mxCell id="3nuBFxr9cyL0pnOWT2aG-8" value="发送excel数据" style="verticalAlign=bottom;endArrow=block;entryX=-0.367;entryY=0.093;shadow=0;strokeWidth=1;entryDx=0;entryDy=0;entryPerimeter=0;" parent="1" edge="1">
          <mxGeometry relative="1" as="geometry">
            <mxPoint x="264" y="157.71899999999994" as="sourcePoint" />
            <mxPoint x="452.3299999999999" y="157.71899999999994" as="targetPoint" />
          </mxGeometry>
        </mxCell>
        <mxCell id="eZNQvngmzv5qfDeCci1Q-1" value="" style="shape=actor;whiteSpace=wrap;html=1;" vertex="1" parent="1">
          <mxGeometry x="85" y="80" width="40" height="60" as="geometry" />
        </mxCell>
        <mxCell id="eZNQvngmzv5qfDeCci1Q-2" value="Server" style="shape=umlLifeline;perimeter=lifelinePerimeter;container=1;collapsible=0;recursiveResize=0;rounded=0;shadow=0;strokeWidth=1;" vertex="1" parent="1">
          <mxGeometry x="410" y="80" width="100" height="410" as="geometry" />
        </mxCell>
        <mxCell id="eZNQvngmzv5qfDeCci1Q-3" value="" style="points=[];perimeter=orthogonalPerimeter;rounded=0;shadow=0;strokeWidth=1;" vertex="1" parent="eZNQvngmzv5qfDeCci1Q-2">
          <mxGeometry x="45" y="80" width="10" height="73" as="geometry" />
        </mxCell>
        <mxCell id="eZNQvngmzv5qfDeCci1Q-28" value="" style="points=[];perimeter=orthogonalPerimeter;rounded=0;shadow=0;strokeWidth=1;" vertex="1" parent="eZNQvngmzv5qfDeCci1Q-2">
          <mxGeometry x="45" y="190" width="10" height="100" as="geometry" />
        </mxCell>
        <mxCell id="eZNQvngmzv5qfDeCci1Q-29" value="" style="edgeStyle=elbowEdgeStyle;elbow=horizontal;endArrow=classic;html=1;rounded=0;entryX=1.233;entryY=0;entryDx=0;entryDy=0;entryPerimeter=0;exitX=1.233;exitY=0.895;exitDx=0;exitDy=0;exitPerimeter=0;" edge="1" parent="eZNQvngmzv5qfDeCci1Q-2" source="eZNQvngmzv5qfDeCci1Q-3" target="eZNQvngmzv5qfDeCci1Q-28">
          <mxGeometry width="50" height="50" relative="1" as="geometry">
            <mxPoint x="55.5" y="128.57999999999998" as="sourcePoint" />
            <mxPoint x="55" y="149.99999999999994" as="targetPoint" />
            <Array as="points">
              <mxPoint x="80.5" y="128.57999999999998" />
              <mxPoint x="110.5" y="152.57999999999998" />
              <mxPoint x="94.25" y="188.57999999999998" />
            </Array>
          </mxGeometry>
        </mxCell>
        <mxCell id="eZNQvngmzv5qfDeCci1Q-30" value="开始导入" style="edgeLabel;html=1;align=center;verticalAlign=middle;resizable=0;points=[];" vertex="1" connectable="0" parent="eZNQvngmzv5qfDeCci1Q-29">
          <mxGeometry x="-0.2381" relative="1" as="geometry">
            <mxPoint x="20" y="15" as="offset" />
          </mxGeometry>
        </mxCell>
        <mxCell id="eZNQvngmzv5qfDeCci1Q-31" value="" style="edgeStyle=elbowEdgeStyle;elbow=horizontal;endArrow=classic;html=1;rounded=0;entryX=1.167;entryY=0.749;entryDx=0;entryDy=0;entryPerimeter=0;exitX=1.033;exitY=0.155;exitDx=0;exitDy=0;exitPerimeter=0;" edge="1" parent="eZNQvngmzv5qfDeCci1Q-2" source="eZNQvngmzv5qfDeCci1Q-3" target="eZNQvngmzv5qfDeCci1Q-3">
          <mxGeometry width="50" height="50" relative="1" as="geometry">
            <mxPoint x="55" y="139.99999999999997" as="sourcePoint" />
            <mxPoint x="57.5" y="202.44" as="targetPoint" />
            <Array as="points">
              <mxPoint x="80" y="150" />
              <mxPoint x="81" y="80.03999999999999" />
              <mxPoint x="111" y="104.03999999999999" />
              <mxPoint x="94.75" y="140.04" />
            </Array>
          </mxGeometry>
        </mxCell>
        <mxCell id="eZNQvngmzv5qfDeCci1Q-32" value="校验模板&lt;br&gt;插入列表第一行" style="edgeLabel;html=1;align=center;verticalAlign=middle;resizable=0;points=[];" vertex="1" connectable="0" parent="eZNQvngmzv5qfDeCci1Q-31">
          <mxGeometry x="-0.2381" relative="1" as="geometry">
            <mxPoint x="40" y="9" as="offset" />
          </mxGeometry>
        </mxCell>
        <mxCell id="eZNQvngmzv5qfDeCci1Q-35" value="" style="edgeStyle=elbowEdgeStyle;elbow=horizontal;endArrow=classic;html=1;rounded=0;entryX=0.967;entryY=0.993;entryDx=0;entryDy=0;entryPerimeter=0;" edge="1" parent="eZNQvngmzv5qfDeCci1Q-2" target="eZNQvngmzv5qfDeCci1Q-28">
          <mxGeometry width="50" height="50" relative="1" as="geometry">
            <mxPoint x="57" y="205" as="sourcePoint" />
            <mxPoint x="60" y="275" as="targetPoint" />
            <Array as="points">
              <mxPoint x="90" y="245" />
              <mxPoint x="98.17000000000002" y="207.24" />
              <mxPoint x="81.92000000000002" y="243.24" />
            </Array>
          </mxGeometry>
        </mxCell>
        <mxCell id="eZNQvngmzv5qfDeCci1Q-4" value="" style="points=[];perimeter=orthogonalPerimeter;rounded=0;shadow=0;strokeWidth=1;" vertex="1" parent="1">
          <mxGeometry x="100" y="150" width="10" height="340" as="geometry" />
        </mxCell>
        <mxCell id="eZNQvngmzv5qfDeCci1Q-5" value="点击导入按钮" style="verticalAlign=bottom;endArrow=block;shadow=0;strokeWidth=1;" edge="1" parent="1">
          <mxGeometry relative="1" as="geometry">
            <mxPoint x="110" y="160.0000000000001" as="sourcePoint" />
            <mxPoint x="250" y="160" as="targetPoint" />
          </mxGeometry>
        </mxCell>
        <mxCell id="eZNQvngmzv5qfDeCci1Q-22" value="如果模板错误&#xa;提示模板结果" style="verticalAlign=bottom;endArrow=open;dashed=1;endSize=8;shadow=0;strokeWidth=1;" edge="1" parent="1">
          <mxGeometry relative="1" as="geometry">
            <mxPoint x="110" y="254.6699999999998" as="targetPoint" />
            <mxPoint x="250" y="254.67000000000002" as="sourcePoint" />
          </mxGeometry>
        </mxCell>
        <mxCell id="eZNQvngmzv5qfDeCci1Q-39" value="处理数据" style="edgeLabel;html=1;align=center;verticalAlign=middle;resizable=0;points=[];" vertex="1" connectable="0" parent="1">
          <mxGeometry x="520.5" y="320.0016666666666" as="geometry" />
        </mxCell>
        <mxCell id="eZNQvngmzv5qfDeCci1Q-40" value="" style="edgeStyle=elbowEdgeStyle;elbow=horizontal;endArrow=open;html=1;rounded=0;endFill=0;dashed=1;entryX=0.9;entryY=0.494;entryDx=0;entryDy=0;entryPerimeter=0;" edge="1" parent="1" target="eZNQvngmzv5qfDeCci1Q-44">
          <mxGeometry width="50" height="50" relative="1" as="geometry">
            <mxPoint x="456.5" y="370" as="sourcePoint" />
            <mxPoint x="270" y="370" as="targetPoint" />
            <Array as="points">
              <mxPoint x="310" y="370" />
              <mxPoint x="320" y="380" />
              <mxPoint x="300" y="370" />
              <mxPoint x="340" y="390" />
              <mxPoint x="330" y="382.75" />
              <mxPoint x="360" y="406.75" />
              <mxPoint x="343.75" y="442.75" />
            </Array>
          </mxGeometry>
        </mxCell>
        <mxCell id="eZNQvngmzv5qfDeCci1Q-41" value="返回导入成功/失败" style="edgeLabel;html=1;align=center;verticalAlign=middle;resizable=0;points=[];" vertex="1" connectable="0" parent="eZNQvngmzv5qfDeCci1Q-40">
          <mxGeometry relative="1" as="geometry">
            <mxPoint y="-10" as="offset" />
          </mxGeometry>
        </mxCell>
        <mxCell id="eZNQvngmzv5qfDeCci1Q-45" value="提示导入成功/失败" style="verticalAlign=bottom;endArrow=open;dashed=1;endSize=8;shadow=0;strokeWidth=1;" edge="1" parent="1">
          <mxGeometry relative="1" as="geometry">
            <mxPoint x="110" y="379.9999999999998" as="targetPoint" />
            <mxPoint x="250" y="380.0000000000001" as="sourcePoint" />
          </mxGeometry>
        </mxCell>
      </root>
    </mxGraphModel>
  </diagram>
</mxfile>
